<mxfile host="app.diagrams.net" modified="2024-01-25T10:02:08.743Z" agent="Mozilla/5.0 (Windows NT 10.0; Win64; x64) AppleWebKit/537.36 (KHTML, like Gecko) Chrome/120.0.0.0 Safari/537.36" etag="yJOCPLBsthyZoBYfmA7M" version="22.1.21" type="google" pages="3">
  <diagram name="Concept Order" id="_lz9Arbkmff_B3C-vJ0g">
    <mxGraphModel grid="0" page="0" gridSize="10" guides="1" tooltips="1" connect="1" arrows="1" fold="1" pageScale="1" pageWidth="850" pageHeight="1100" math="0" shadow="0">
      <root>
        <mxCell id="0" />
        <mxCell id="1" parent="0" />
        <mxCell id="RaQHfYHKUksMZJ2UErdJ-29" style="edgeStyle=orthogonalEdgeStyle;rounded=0;orthogonalLoop=1;jettySize=auto;html=1;exitX=0.75;exitY=1;exitDx=0;exitDy=0;fontSize=12;startSize=8;endSize=8;" edge="1" parent="1" source="DwUPUjku0HetQH6oXNHy-1" target="DwUPUjku0HetQH6oXNHy-3">
          <mxGeometry relative="1" as="geometry">
            <Array as="points">
              <mxPoint x="-127" y="66" />
            </Array>
          </mxGeometry>
        </mxCell>
        <mxCell id="DwUPUjku0HetQH6oXNHy-1" value="CUSTOMER" style="rounded=0;whiteSpace=wrap;html=1;fontSize=16;fillColor=#d5e8d4;strokeColor=#82b366;" vertex="1" parent="1">
          <mxGeometry x="-217" y="-34" width="120" height="60" as="geometry" />
        </mxCell>
        <mxCell id="DwUPUjku0HetQH6oXNHy-2" value="1.0" style="swimlane;fontStyle=0;childLayout=stackLayout;horizontal=1;startSize=30;horizontalStack=0;resizeParent=1;resizeParentMax=0;resizeLast=0;collapsible=1;marginBottom=0;whiteSpace=wrap;html=1;fontSize=16;fillColor=#fff2cc;strokeColor=#d6b656;" vertex="1" parent="1">
          <mxGeometry x="84" y="26" width="185" height="107" as="geometry" />
        </mxCell>
        <mxCell id="DwUPUjku0HetQH6oXNHy-3" value="Receive and Transform Customer Foot Order" style="text;strokeColor=none;fillColor=none;align=left;verticalAlign=middle;spacingLeft=4;spacingRight=4;overflow=hidden;points=[[0,0.5],[1,0.5]];portConstraint=eastwest;rotatable=0;whiteSpace=wrap;html=1;fontSize=16;" vertex="1" parent="DwUPUjku0HetQH6oXNHy-2">
          <mxGeometry y="30" width="185" height="77" as="geometry" />
        </mxCell>
        <mxCell id="RaQHfYHKUksMZJ2UErdJ-1" value="KITCHEN" style="rounded=0;whiteSpace=wrap;html=1;fontSize=16;fillColor=#dae8fc;strokeColor=#6c8ebf;" vertex="1" parent="1">
          <mxGeometry x="450" y="-34" width="124" height="60" as="geometry" />
        </mxCell>
        <mxCell id="RaQHfYHKUksMZJ2UErdJ-5" style="edgeStyle=orthogonalEdgeStyle;rounded=0;orthogonalLoop=1;jettySize=auto;html=1;entryX=0.605;entryY=1.031;entryDx=0;entryDy=0;entryPerimeter=0;fontSize=12;startSize=8;endSize=8;" edge="1" parent="1" source="DwUPUjku0HetQH6oXNHy-3" target="RaQHfYHKUksMZJ2UErdJ-1">
          <mxGeometry relative="1" as="geometry" />
        </mxCell>
        <mxCell id="RaQHfYHKUksMZJ2UErdJ-25" style="rounded=0;orthogonalLoop=1;jettySize=auto;html=1;exitX=0;exitY=0.5;exitDx=0;exitDy=0;entryX=0.25;entryY=1;entryDx=0;entryDy=0;fontSize=12;startSize=8;endSize=8;" edge="1" parent="1" source="DwUPUjku0HetQH6oXNHy-3" target="DwUPUjku0HetQH6oXNHy-1">
          <mxGeometry relative="1" as="geometry">
            <Array as="points">
              <mxPoint x="-187" y="95" />
            </Array>
          </mxGeometry>
        </mxCell>
        <mxCell id="RaQHfYHKUksMZJ2UErdJ-28" value="Customer Order" style="text;html=1;align=center;verticalAlign=middle;resizable=0;points=[];autosize=1;strokeColor=none;fillColor=none;fontSize=16;" vertex="1" parent="1">
          <mxGeometry x="-90" y="32" width="133" height="31" as="geometry" />
        </mxCell>
        <mxCell id="RaQHfYHKUksMZJ2UErdJ-30" value="3.0" style="swimlane;fontStyle=0;childLayout=stackLayout;horizontal=1;startSize=30;horizontalStack=0;resizeParent=1;resizeParentMax=0;resizeLast=0;collapsible=1;marginBottom=0;whiteSpace=wrap;html=1;fontSize=16;fillColor=#fff2cc;strokeColor=#d6b656;" vertex="1" parent="1">
          <mxGeometry x="269" y="259" width="140" height="100" as="geometry" />
        </mxCell>
        <mxCell id="RaQHfYHKUksMZJ2UErdJ-31" value="Update Inventory File" style="text;strokeColor=none;fillColor=none;align=left;verticalAlign=middle;spacingLeft=4;spacingRight=4;overflow=hidden;points=[[0,0.5],[1,0.5]];portConstraint=eastwest;rotatable=0;whiteSpace=wrap;html=1;fontSize=16;" vertex="1" parent="RaQHfYHKUksMZJ2UErdJ-30">
          <mxGeometry y="30" width="140" height="70" as="geometry" />
        </mxCell>
        <mxCell id="RaQHfYHKUksMZJ2UErdJ-34" value="2.0" style="swimlane;fontStyle=0;childLayout=stackLayout;horizontal=1;startSize=30;horizontalStack=0;resizeParent=1;resizeParentMax=0;resizeLast=0;collapsible=1;marginBottom=0;whiteSpace=wrap;html=1;fontSize=16;fillColor=#fff2cc;strokeColor=#d6b656;" vertex="1" parent="1">
          <mxGeometry x="-56" y="259" width="140" height="97" as="geometry" />
        </mxCell>
        <mxCell id="RaQHfYHKUksMZJ2UErdJ-35" value="Update Goods Sold File" style="text;strokeColor=none;fillColor=none;align=left;verticalAlign=middle;spacingLeft=4;spacingRight=4;overflow=hidden;points=[[0,0.5],[1,0.5]];portConstraint=eastwest;rotatable=0;whiteSpace=wrap;html=1;fontSize=16;" vertex="1" parent="RaQHfYHKUksMZJ2UErdJ-34">
          <mxGeometry y="30" width="140" height="67" as="geometry" />
        </mxCell>
        <mxCell id="RaQHfYHKUksMZJ2UErdJ-38" value="" style="endArrow=classic;html=1;rounded=0;fontSize=12;startSize=8;endSize=8;exitX=0.649;exitY=1;exitDx=0;exitDy=0;exitPerimeter=0;edgeStyle=orthogonalEdgeStyle;entryX=-0.008;entryY=0.336;entryDx=0;entryDy=0;entryPerimeter=0;" edge="1" parent="1" target="RaQHfYHKUksMZJ2UErdJ-31">
          <mxGeometry width="50" height="50" relative="1" as="geometry">
            <mxPoint x="198.00499999999994" y="136" as="sourcePoint" />
            <mxPoint x="257.94" y="311" as="targetPoint" />
            <Array as="points">
              <mxPoint x="198" y="313" />
              <mxPoint x="258" y="313" />
            </Array>
          </mxGeometry>
        </mxCell>
        <mxCell id="RaQHfYHKUksMZJ2UErdJ-41" value="" style="endArrow=classic;html=1;rounded=0;fontSize=12;startSize=8;endSize=8;entryX=1.036;entryY=0.373;entryDx=0;entryDy=0;entryPerimeter=0;exitX=0.392;exitY=1.01;exitDx=0;exitDy=0;exitPerimeter=0;edgeStyle=orthogonalEdgeStyle;" edge="1" parent="1" source="DwUPUjku0HetQH6oXNHy-3" target="RaQHfYHKUksMZJ2UErdJ-35">
          <mxGeometry width="50" height="50" relative="1" as="geometry">
            <mxPoint x="177" y="182" as="sourcePoint" />
            <mxPoint x="145" y="323" as="targetPoint" />
            <Array as="points">
              <mxPoint x="157" y="137" />
              <mxPoint x="157" y="137" />
              <mxPoint x="157" y="314" />
            </Array>
          </mxGeometry>
        </mxCell>
        <mxCell id="RaQHfYHKUksMZJ2UErdJ-57" value="D2" style="swimlane;fontStyle=0;childLayout=stackLayout;horizontal=1;startSize=30;horizontalStack=0;resizeParent=1;resizeParentMax=0;resizeLast=0;collapsible=1;marginBottom=0;whiteSpace=wrap;html=1;fontSize=16;direction=north;fillColor=#f8cecc;strokeColor=#b85450;" vertex="1" parent="1">
          <mxGeometry x="-177" y="437" width="140" height="60" as="geometry" />
        </mxCell>
        <mxCell id="RaQHfYHKUksMZJ2UErdJ-77" style="edgeStyle=orthogonalEdgeStyle;rounded=0;orthogonalLoop=1;jettySize=auto;html=1;entryX=1;entryY=0.5;entryDx=0;entryDy=0;fontSize=12;startSize=8;endSize=8;" edge="1" parent="1" source="RaQHfYHKUksMZJ2UErdJ-61" target="RaQHfYHKUksMZJ2UErdJ-72">
          <mxGeometry relative="1" as="geometry" />
        </mxCell>
        <mxCell id="RaQHfYHKUksMZJ2UErdJ-61" value="D1" style="swimlane;fontStyle=0;childLayout=stackLayout;horizontal=1;startSize=30;horizontalStack=0;resizeParent=1;resizeParentMax=0;resizeLast=0;collapsible=1;marginBottom=0;whiteSpace=wrap;html=1;fontSize=16;direction=north;fillColor=#f8cecc;strokeColor=#b85450;" vertex="1" parent="1">
          <mxGeometry x="363" y="437" width="140" height="60" as="geometry" />
        </mxCell>
        <mxCell id="RaQHfYHKUksMZJ2UErdJ-62" value="" style="endArrow=classic;html=1;rounded=0;fontSize=12;startSize=8;endSize=8;entryX=0.5;entryY=0;entryDx=0;entryDy=0;exitX=0.393;exitY=1.043;exitDx=0;exitDy=0;exitPerimeter=0;edgeStyle=orthogonalEdgeStyle;" edge="1" parent="1" source="RaQHfYHKUksMZJ2UErdJ-31" target="RaQHfYHKUksMZJ2UErdJ-61">
          <mxGeometry width="50" height="50" relative="1" as="geometry">
            <mxPoint x="152" y="301" as="sourcePoint" />
            <mxPoint x="202" y="251" as="targetPoint" />
            <Array as="points">
              <mxPoint x="322" y="362" />
              <mxPoint x="322" y="467" />
            </Array>
          </mxGeometry>
        </mxCell>
        <mxCell id="RaQHfYHKUksMZJ2UErdJ-63" value="" style="endArrow=classic;html=1;rounded=0;fontSize=12;startSize=8;endSize=8;entryX=0.5;entryY=1;entryDx=0;entryDy=0;exitX=0.517;exitY=1.053;exitDx=0;exitDy=0;exitPerimeter=0;edgeStyle=orthogonalEdgeStyle;" edge="1" parent="1" source="RaQHfYHKUksMZJ2UErdJ-35" target="RaQHfYHKUksMZJ2UErdJ-57">
          <mxGeometry width="50" height="50" relative="1" as="geometry">
            <mxPoint x="4" y="384" as="sourcePoint" />
            <mxPoint x="43" y="489" as="targetPoint" />
            <Array as="points">
              <mxPoint x="16" y="397" />
              <mxPoint x="16" y="467" />
            </Array>
          </mxGeometry>
        </mxCell>
        <mxCell id="RaQHfYHKUksMZJ2UErdJ-64" value="Inventory Data" style="text;html=1;align=center;verticalAlign=middle;resizable=0;points=[];autosize=1;strokeColor=none;fillColor=none;fontSize=16;rotation=90;" vertex="1" parent="1">
          <mxGeometry x="168" y="219" width="122" height="31" as="geometry" />
        </mxCell>
        <mxCell id="RaQHfYHKUksMZJ2UErdJ-65" value="Goods Sold" style="text;html=1;align=center;verticalAlign=middle;resizable=0;points=[];autosize=1;strokeColor=none;fillColor=none;fontSize=16;rotation=270;" vertex="1" parent="1">
          <mxGeometry x="78" y="225" width="102" height="31" as="geometry" />
        </mxCell>
        <mxCell id="RaQHfYHKUksMZJ2UErdJ-75" style="edgeStyle=orthogonalEdgeStyle;rounded=0;orthogonalLoop=1;jettySize=auto;html=1;entryX=0;entryY=0.5;entryDx=0;entryDy=0;fontSize=12;startSize=8;endSize=8;" edge="1" parent="1" source="RaQHfYHKUksMZJ2UErdJ-67" target="RaQHfYHKUksMZJ2UErdJ-72">
          <mxGeometry relative="1" as="geometry" />
        </mxCell>
        <mxCell id="RaQHfYHKUksMZJ2UErdJ-67" value="Goods Sold&lt;br&gt;File" style="text;html=1;align=center;verticalAlign=middle;resizable=0;points=[];autosize=1;strokeColor=none;fillColor=none;fontSize=16;" vertex="1" parent="1">
          <mxGeometry x="-141" y="445" width="102" height="50" as="geometry" />
        </mxCell>
        <mxCell id="RaQHfYHKUksMZJ2UErdJ-68" value="Formatted&lt;br&gt;Goods Sold Data" style="text;html=1;align=center;verticalAlign=middle;resizable=0;points=[];autosize=1;strokeColor=none;fillColor=none;fontSize=16;" vertex="1" parent="1">
          <mxGeometry x="-125" y="374" width="140" height="50" as="geometry" />
        </mxCell>
        <mxCell id="RaQHfYHKUksMZJ2UErdJ-69" value="Formatted&lt;br&gt;Inventory Data" style="text;html=1;align=center;verticalAlign=middle;resizable=0;points=[];autosize=1;strokeColor=none;fillColor=none;fontSize=16;" vertex="1" parent="1">
          <mxGeometry x="327" y="374" width="122" height="50" as="geometry" />
        </mxCell>
        <mxCell id="RaQHfYHKUksMZJ2UErdJ-70" value="Inventory&amp;nbsp;&lt;br&gt;File" style="text;html=1;align=center;verticalAlign=middle;resizable=0;points=[];autosize=1;strokeColor=none;fillColor=none;fontSize=16;" vertex="1" parent="1">
          <mxGeometry x="404" y="441" width="88" height="50" as="geometry" />
        </mxCell>
        <mxCell id="RaQHfYHKUksMZJ2UErdJ-71" value="4.0" style="swimlane;fontStyle=0;childLayout=stackLayout;horizontal=1;startSize=30;horizontalStack=0;resizeParent=1;resizeParentMax=0;resizeLast=0;collapsible=1;marginBottom=0;whiteSpace=wrap;html=1;fontSize=16;fillColor=#fff2cc;strokeColor=#d6b656;" vertex="1" parent="1">
          <mxGeometry x="106.5" y="535" width="140" height="114" as="geometry" />
        </mxCell>
        <mxCell id="RaQHfYHKUksMZJ2UErdJ-72" value="&lt;span style=&quot;white-space: pre;&quot;&gt;&#x9;&lt;/span&gt;Product&lt;br&gt;&amp;nbsp; Managements&amp;nbsp; &amp;nbsp; &amp;nbsp;&lt;span style=&quot;white-space: pre;&quot;&gt;&#x9;&lt;/span&gt;Report" style="text;strokeColor=none;fillColor=none;align=left;verticalAlign=middle;spacingLeft=4;spacingRight=4;overflow=hidden;points=[[0,0.5],[1,0.5]];portConstraint=eastwest;rotatable=0;whiteSpace=wrap;html=1;fontSize=16;" vertex="1" parent="RaQHfYHKUksMZJ2UErdJ-71">
          <mxGeometry y="30" width="140" height="84" as="geometry" />
        </mxCell>
        <mxCell id="RaQHfYHKUksMZJ2UErdJ-76" value="Daily Goods Sold&lt;br&gt;Amounts" style="text;html=1;align=center;verticalAlign=middle;resizable=0;points=[];autosize=1;strokeColor=none;fillColor=none;fontSize=16;" vertex="1" parent="1">
          <mxGeometry x="-83" y="551" width="142" height="50" as="geometry" />
        </mxCell>
        <mxCell id="RaQHfYHKUksMZJ2UErdJ-78" value="Daily Inventory &lt;br&gt;Depletion Amounts" style="text;html=1;align=center;verticalAlign=middle;resizable=0;points=[];autosize=1;strokeColor=none;fillColor=none;fontSize=16;" vertex="1" parent="1">
          <mxGeometry x="268.5" y="550" width="152" height="50" as="geometry" />
        </mxCell>
        <mxCell id="RaQHfYHKUksMZJ2UErdJ-80" value="" style="endArrow=classic;html=1;rounded=0;fontSize=12;startSize=8;endSize=8;exitX=0.472;exitY=1.021;exitDx=0;exitDy=0;exitPerimeter=0;edgeStyle=orthogonalEdgeStyle;" edge="1" parent="1" source="RaQHfYHKUksMZJ2UErdJ-72">
          <mxGeometry width="50" height="50" relative="1" as="geometry">
            <mxPoint x="235" y="733" as="sourcePoint" />
            <mxPoint x="386" y="683" as="targetPoint" />
            <Array as="points">
              <mxPoint x="173" y="683" />
            </Array>
          </mxGeometry>
        </mxCell>
        <mxCell id="RaQHfYHKUksMZJ2UErdJ-81" value="Managements Report" style="text;html=1;align=center;verticalAlign=middle;resizable=0;points=[];autosize=1;strokeColor=none;fillColor=none;fontSize=16;" vertex="1" parent="1">
          <mxGeometry x="173" y="652" width="172" height="31" as="geometry" />
        </mxCell>
        <mxCell id="RaQHfYHKUksMZJ2UErdJ-82" value="RESTAURANT&lt;br&gt;MANAGEMENTS" style="rounded=0;whiteSpace=wrap;html=1;fontSize=16;fillColor=#e1d5e7;strokeColor=#9673a6;" vertex="1" parent="1">
          <mxGeometry x="397" y="657" width="165" height="61" as="geometry" />
        </mxCell>
        <mxCell id="RaQHfYHKUksMZJ2UErdJ-84" value="Food Order" style="text;html=1;align=center;verticalAlign=middle;resizable=0;points=[];autosize=1;strokeColor=none;fillColor=none;fontSize=16;" vertex="1" parent="1">
          <mxGeometry x="345" y="60" width="100" height="31" as="geometry" />
        </mxCell>
        <mxCell id="RaQHfYHKUksMZJ2UErdJ-85" value="Receipt" style="text;html=1;align=center;verticalAlign=middle;resizable=0;points=[];autosize=1;strokeColor=none;fillColor=none;fontSize=16;" vertex="1" parent="1">
          <mxGeometry x="-72" y="64" width="72" height="31" as="geometry" />
        </mxCell>
        <mxCell id="Glrc1IF0jTSInz76G51--1" value="Text" style="text;html=1;strokeColor=none;fillColor=none;align=center;verticalAlign=middle;whiteSpace=wrap;rounded=0;fontSize=16;" vertex="1" parent="1">
          <mxGeometry x="230" y="121" width="60" height="30" as="geometry" />
        </mxCell>
        <mxCell id="Glrc1IF0jTSInz76G51--2" value="Food Order Proccess" style="text;html=1;strokeColor=#d79b00;fillColor=#ffe6cc;align=center;verticalAlign=middle;whiteSpace=wrap;rounded=0;fontSize=16;" vertex="1" parent="1">
          <mxGeometry x="118" y="-209" width="177" height="30" as="geometry" />
        </mxCell>
      </root>
    </mxGraphModel>
  </diagram>
  <diagram id="wwHghEivMgStBZs8gY8O" name="Foodpanda Order Process">
    <mxGraphModel grid="0" page="0" gridSize="10" guides="1" tooltips="1" connect="1" arrows="1" fold="1" pageScale="1" pageWidth="850" pageHeight="1100" math="0" shadow="0">
      <root>
        <mxCell id="0" />
        <mxCell id="1" parent="0" />
        <mxCell id="DNS73kOXr1KGqFNWTncN-1" value="User" style="rounded=0;whiteSpace=wrap;html=1;fontSize=16;fillColor=#f0a30a;fontColor=#000000;strokeColor=#BD7000;" vertex="1" parent="1">
          <mxGeometry x="-216" y="-85" width="120" height="60" as="geometry" />
        </mxCell>
        <mxCell id="D0YmdiGrkmF4wguopfJw-1" value="1.0" style="swimlane;fontStyle=0;childLayout=stackLayout;horizontal=1;startSize=30;horizontalStack=0;resizeParent=1;resizeParentMax=0;resizeLast=0;collapsible=1;marginBottom=0;whiteSpace=wrap;html=1;fontSize=16;fillColor=#dae8fc;strokeColor=#6c8ebf;" vertex="1" parent="1">
          <mxGeometry x="26" y="-85" width="140" height="60" as="geometry" />
        </mxCell>
        <mxCell id="D0YmdiGrkmF4wguopfJw-2" value="Turn On Location" style="text;strokeColor=none;fillColor=none;align=left;verticalAlign=middle;spacingLeft=4;spacingRight=4;overflow=hidden;points=[[0,0.5],[1,0.5]];portConstraint=eastwest;rotatable=0;whiteSpace=wrap;html=1;fontSize=16;" vertex="1" parent="D0YmdiGrkmF4wguopfJw-1">
          <mxGeometry y="30" width="140" height="30" as="geometry" />
        </mxCell>
        <mxCell id="D0YmdiGrkmF4wguopfJw-5" value="1.0" style="swimlane;fontStyle=0;childLayout=stackLayout;horizontal=1;startSize=30;horizontalStack=0;resizeParent=1;resizeParentMax=0;resizeLast=0;collapsible=1;marginBottom=0;whiteSpace=wrap;html=1;fontSize=16;fillColor=#dae8fc;strokeColor=#6c8ebf;" vertex="1" parent="1">
          <mxGeometry x="26" y="45" width="140" height="60" as="geometry" />
        </mxCell>
        <mxCell id="D0YmdiGrkmF4wguopfJw-6" value="SignUp Or Login" style="text;strokeColor=none;fillColor=none;align=left;verticalAlign=middle;spacingLeft=4;spacingRight=4;overflow=hidden;points=[[0,0.5],[1,0.5]];portConstraint=eastwest;rotatable=0;whiteSpace=wrap;html=1;fontSize=16;" vertex="1" parent="D0YmdiGrkmF4wguopfJw-5">
          <mxGeometry y="30" width="140" height="30" as="geometry" />
        </mxCell>
        <mxCell id="D0YmdiGrkmF4wguopfJw-7" style="edgeStyle=orthogonalEdgeStyle;rounded=0;orthogonalLoop=1;jettySize=auto;html=1;entryX=-0.007;entryY=-0.025;entryDx=0;entryDy=0;entryPerimeter=0;fontSize=12;startSize=8;endSize=8;" edge="1" parent="1" source="DNS73kOXr1KGqFNWTncN-1" target="D0YmdiGrkmF4wguopfJw-6">
          <mxGeometry relative="1" as="geometry">
            <Array as="points">
              <mxPoint x="-128" y="74" />
            </Array>
          </mxGeometry>
        </mxCell>
        <mxCell id="D0YmdiGrkmF4wguopfJw-8" style="edgeStyle=none;curved=1;rounded=0;orthogonalLoop=1;jettySize=auto;html=1;entryX=-0.014;entryY=-0.025;entryDx=0;entryDy=0;entryPerimeter=0;fontSize=12;startSize=8;endSize=8;" edge="1" parent="1" source="DNS73kOXr1KGqFNWTncN-1" target="D0YmdiGrkmF4wguopfJw-2">
          <mxGeometry relative="1" as="geometry" />
        </mxCell>
        <mxCell id="D0YmdiGrkmF4wguopfJw-9" value="2.0" style="swimlane;fontStyle=0;childLayout=stackLayout;horizontal=1;startSize=30;horizontalStack=0;resizeParent=1;resizeParentMax=0;resizeLast=0;collapsible=1;marginBottom=0;whiteSpace=wrap;html=1;fontSize=16;fillColor=#dae8fc;strokeColor=#6c8ebf;" vertex="1" parent="1">
          <mxGeometry x="291" y="-25" width="140" height="69" as="geometry" />
        </mxCell>
        <mxCell id="D0YmdiGrkmF4wguopfJw-10" value="Check Menu" style="text;strokeColor=#36393d;fillColor=#f9f7ed;align=left;verticalAlign=middle;spacingLeft=4;spacingRight=4;overflow=hidden;points=[[0,0.5],[1,0.5]];portConstraint=eastwest;rotatable=0;whiteSpace=wrap;html=1;fontSize=16;" vertex="1" parent="D0YmdiGrkmF4wguopfJw-9">
          <mxGeometry y="30" width="140" height="39" as="geometry" />
        </mxCell>
        <mxCell id="D0YmdiGrkmF4wguopfJw-11" style="edgeStyle=orthogonalEdgeStyle;rounded=0;orthogonalLoop=1;jettySize=auto;html=1;entryX=-0.014;entryY=0.075;entryDx=0;entryDy=0;entryPerimeter=0;fontSize=12;startSize=8;endSize=8;" edge="1" parent="1" source="D0YmdiGrkmF4wguopfJw-1" target="D0YmdiGrkmF4wguopfJw-10">
          <mxGeometry relative="1" as="geometry" />
        </mxCell>
        <mxCell id="D0YmdiGrkmF4wguopfJw-12" style="edgeStyle=orthogonalEdgeStyle;rounded=0;orthogonalLoop=1;jettySize=auto;html=1;entryX=0.529;entryY=1.042;entryDx=0;entryDy=0;entryPerimeter=0;fontSize=12;startSize=8;endSize=8;" edge="1" parent="1" source="D0YmdiGrkmF4wguopfJw-6" target="D0YmdiGrkmF4wguopfJw-10">
          <mxGeometry relative="1" as="geometry">
            <Array as="points">
              <mxPoint x="365" y="90" />
            </Array>
          </mxGeometry>
        </mxCell>
        <mxCell id="D0YmdiGrkmF4wguopfJw-13" value="3.0" style="swimlane;fontStyle=0;childLayout=stackLayout;horizontal=1;startSize=30;horizontalStack=0;resizeParent=1;resizeParentMax=0;resizeLast=0;collapsible=1;marginBottom=0;whiteSpace=wrap;html=1;fontSize=16;fillColor=#dae8fc;strokeColor=#6c8ebf;" vertex="1" parent="1">
          <mxGeometry x="515" y="-25" width="140" height="77" as="geometry" />
        </mxCell>
        <mxCell id="D0YmdiGrkmF4wguopfJw-14" value="Validate Item" style="text;strokeColor=#36393d;fillColor=#ffff88;align=left;verticalAlign=middle;spacingLeft=4;spacingRight=4;overflow=hidden;points=[[0,0.5],[1,0.5]];portConstraint=eastwest;rotatable=0;whiteSpace=wrap;html=1;fontSize=16;" vertex="1" parent="D0YmdiGrkmF4wguopfJw-13">
          <mxGeometry y="30" width="140" height="47" as="geometry" />
        </mxCell>
        <mxCell id="D0YmdiGrkmF4wguopfJw-16" value="5.0" style="swimlane;fontStyle=0;childLayout=stackLayout;horizontal=1;startSize=30;horizontalStack=0;resizeParent=1;resizeParentMax=0;resizeLast=0;collapsible=1;marginBottom=0;whiteSpace=wrap;html=1;fontSize=16;fillColor=#dae8fc;strokeColor=#6c8ebf;" vertex="1" parent="1">
          <mxGeometry x="515" y="117" width="140" height="77" as="geometry" />
        </mxCell>
        <mxCell id="D0YmdiGrkmF4wguopfJw-17" value="Process Add Card" style="text;strokeColor=#36393d;fillColor=#ffff88;align=left;verticalAlign=middle;spacingLeft=4;spacingRight=4;overflow=hidden;points=[[0,0.5],[1,0.5]];portConstraint=eastwest;rotatable=0;whiteSpace=wrap;html=1;fontSize=16;" vertex="1" parent="D0YmdiGrkmF4wguopfJw-16">
          <mxGeometry y="30" width="140" height="47" as="geometry" />
        </mxCell>
        <mxCell id="D0YmdiGrkmF4wguopfJw-21" value="6.0" style="swimlane;fontStyle=0;childLayout=stackLayout;horizontal=1;startSize=30;horizontalStack=0;resizeParent=1;resizeParentMax=0;resizeLast=0;collapsible=1;marginBottom=0;whiteSpace=wrap;html=1;fontSize=16;fillColor=#dae8fc;strokeColor=#6c8ebf;" vertex="1" parent="1">
          <mxGeometry x="291" y="171" width="140" height="86" as="geometry" />
        </mxCell>
        <mxCell id="D0YmdiGrkmF4wguopfJw-22" value="Process Ping Location" style="text;strokeColor=#36393d;fillColor=#ffcc99;align=left;verticalAlign=middle;spacingLeft=4;spacingRight=4;overflow=hidden;points=[[0,0.5],[1,0.5]];portConstraint=eastwest;rotatable=0;whiteSpace=wrap;html=1;fontSize=16;" vertex="1" parent="D0YmdiGrkmF4wguopfJw-21">
          <mxGeometry y="30" width="140" height="56" as="geometry" />
        </mxCell>
        <mxCell id="D0YmdiGrkmF4wguopfJw-23" style="edgeStyle=orthogonalEdgeStyle;rounded=0;orthogonalLoop=1;jettySize=auto;html=1;entryX=1.005;entryY=0.252;entryDx=0;entryDy=0;entryPerimeter=0;fontSize=12;startSize=8;endSize=8;" edge="1" parent="1" source="D0YmdiGrkmF4wguopfJw-17" target="D0YmdiGrkmF4wguopfJw-22">
          <mxGeometry relative="1" as="geometry" />
        </mxCell>
        <mxCell id="D0YmdiGrkmF4wguopfJw-24" style="edgeStyle=none;curved=1;rounded=0;orthogonalLoop=1;jettySize=auto;html=1;fontSize=12;startSize=8;endSize=8;" edge="1" parent="1">
          <mxGeometry relative="1" as="geometry">
            <mxPoint x="433" y="22.000263157894796" as="sourcePoint" />
            <mxPoint x="515" y="22.27" as="targetPoint" />
          </mxGeometry>
        </mxCell>
        <mxCell id="D0YmdiGrkmF4wguopfJw-25" value="7.0" style="swimlane;fontStyle=0;childLayout=stackLayout;horizontal=1;startSize=30;horizontalStack=0;resizeParent=1;resizeParentMax=0;resizeLast=0;collapsible=1;marginBottom=0;whiteSpace=wrap;html=1;fontSize=16;fillColor=#dae8fc;strokeColor=#6c8ebf;" vertex="1" parent="1">
          <mxGeometry x="291" y="314" width="140" height="86" as="geometry" />
        </mxCell>
        <mxCell id="D0YmdiGrkmF4wguopfJw-26" value="Check Payment" style="text;strokeColor=#36393d;fillColor=#ffcc99;align=left;verticalAlign=middle;spacingLeft=4;spacingRight=4;overflow=hidden;points=[[0,0.5],[1,0.5]];portConstraint=eastwest;rotatable=0;whiteSpace=wrap;html=1;fontSize=16;" vertex="1" parent="D0YmdiGrkmF4wguopfJw-25">
          <mxGeometry y="30" width="140" height="56" as="geometry" />
        </mxCell>
        <mxCell id="D0YmdiGrkmF4wguopfJw-27" value="8.0" style="swimlane;fontStyle=0;childLayout=stackLayout;horizontal=1;startSize=30;horizontalStack=0;resizeParent=1;resizeParentMax=0;resizeLast=0;collapsible=1;marginBottom=0;whiteSpace=wrap;html=1;fontSize=16;fillColor=#dae8fc;strokeColor=#6c8ebf;" vertex="1" parent="1">
          <mxGeometry x="30" y="314" width="140" height="86" as="geometry" />
        </mxCell>
        <mxCell id="D0YmdiGrkmF4wguopfJw-28" value="Sucessfull" style="text;strokeColor=#36393d;fillColor=#cdeb8b;align=left;verticalAlign=middle;spacingLeft=4;spacingRight=4;overflow=hidden;points=[[0,0.5],[1,0.5]];portConstraint=eastwest;rotatable=0;whiteSpace=wrap;html=1;fontSize=16;" vertex="1" parent="D0YmdiGrkmF4wguopfJw-27">
          <mxGeometry y="30" width="140" height="56" as="geometry" />
        </mxCell>
        <mxCell id="D0YmdiGrkmF4wguopfJw-29" value="" style="endArrow=classic;html=1;rounded=0;fontSize=12;startSize=8;endSize=8;curved=1;entryX=0.5;entryY=0;entryDx=0;entryDy=0;exitX=0.493;exitY=1.076;exitDx=0;exitDy=0;exitPerimeter=0;" edge="1" parent="1" source="D0YmdiGrkmF4wguopfJw-22" target="D0YmdiGrkmF4wguopfJw-25">
          <mxGeometry width="50" height="50" relative="1" as="geometry">
            <mxPoint x="255" y="317" as="sourcePoint" />
            <mxPoint x="305" y="267" as="targetPoint" />
          </mxGeometry>
        </mxCell>
        <mxCell id="D0YmdiGrkmF4wguopfJw-30" style="edgeStyle=none;curved=1;rounded=0;orthogonalLoop=1;jettySize=auto;html=1;entryX=1;entryY=0.5;entryDx=0;entryDy=0;fontSize=12;startSize=8;endSize=8;" edge="1" parent="1" source="D0YmdiGrkmF4wguopfJw-26" target="D0YmdiGrkmF4wguopfJw-28">
          <mxGeometry relative="1" as="geometry" />
        </mxCell>
        <mxCell id="D0YmdiGrkmF4wguopfJw-31" style="edgeStyle=orthogonalEdgeStyle;rounded=0;orthogonalLoop=1;jettySize=auto;html=1;entryX=0.25;entryY=1;entryDx=0;entryDy=0;fontSize=12;startSize=8;endSize=8;" edge="1" parent="1" source="D0YmdiGrkmF4wguopfJw-28" target="DNS73kOXr1KGqFNWTncN-1">
          <mxGeometry relative="1" as="geometry" />
        </mxCell>
        <mxCell id="D0YmdiGrkmF4wguopfJw-32" value="Delivery to user" style="text;html=1;align=center;verticalAlign=middle;resizable=0;points=[];autosize=1;strokeColor=none;fillColor=none;fontSize=16;" vertex="1" parent="1">
          <mxGeometry x="-153" y="335" width="129" height="31" as="geometry" />
        </mxCell>
        <mxCell id="D0YmdiGrkmF4wguopfJw-33" value="4.0" style="swimlane;fontStyle=0;childLayout=stackLayout;horizontal=1;startSize=30;horizontalStack=0;resizeParent=1;resizeParentMax=0;resizeLast=0;collapsible=1;marginBottom=0;whiteSpace=wrap;html=1;fontSize=16;fillColor=#dae8fc;strokeColor=#6c8ebf;" vertex="1" parent="1">
          <mxGeometry x="722" y="-82" width="140" height="77" as="geometry" />
        </mxCell>
        <mxCell id="D0YmdiGrkmF4wguopfJw-34" value="Receive Item" style="text;strokeColor=#36393d;fillColor=#eeeeee;align=left;verticalAlign=middle;spacingLeft=4;spacingRight=4;overflow=hidden;points=[[0,0.5],[1,0.5]];portConstraint=eastwest;rotatable=0;whiteSpace=wrap;html=1;fontSize=16;" vertex="1" parent="D0YmdiGrkmF4wguopfJw-33">
          <mxGeometry y="30" width="140" height="47" as="geometry" />
        </mxCell>
        <mxCell id="D0YmdiGrkmF4wguopfJw-35" style="edgeStyle=orthogonalEdgeStyle;rounded=0;orthogonalLoop=1;jettySize=auto;html=1;entryX=0.486;entryY=1.122;entryDx=0;entryDy=0;entryPerimeter=0;fontSize=12;startSize=8;endSize=8;" edge="1" parent="1" source="D0YmdiGrkmF4wguopfJw-14" target="D0YmdiGrkmF4wguopfJw-34">
          <mxGeometry relative="1" as="geometry">
            <Array as="points">
              <mxPoint x="790" y="29" />
            </Array>
          </mxGeometry>
        </mxCell>
        <mxCell id="D0YmdiGrkmF4wguopfJw-36" value="" style="endArrow=classic;html=1;rounded=0;fontSize=12;startSize=8;endSize=8;entryX=1;entryY=0.5;entryDx=0;entryDy=0;exitX=0.75;exitY=1.133;exitDx=0;exitDy=0;exitPerimeter=0;edgeStyle=orthogonalEdgeStyle;" edge="1" parent="1" source="D0YmdiGrkmF4wguopfJw-34" target="D0YmdiGrkmF4wguopfJw-17">
          <mxGeometry width="50" height="50" relative="1" as="geometry">
            <mxPoint x="768" y="100" as="sourcePoint" />
            <mxPoint x="818" y="50" as="targetPoint" />
            <Array as="points">
              <mxPoint x="827" y="170" />
            </Array>
          </mxGeometry>
        </mxCell>
        <mxCell id="D0YmdiGrkmF4wguopfJw-37" value="Foodpanda Order Process" style="text;html=1;align=center;verticalAlign=middle;resizable=0;points=[];autosize=1;strokeColor=#d6b656;fillColor=#fff2cc;fontSize=16;fontStyle=1" vertex="1" parent="1">
          <mxGeometry x="212" y="-242" width="219" height="31" as="geometry" />
        </mxCell>
      </root>
    </mxGraphModel>
  </diagram>
  <diagram id="4vIUugGZ2mu8Lfx2JlKP" name="Telegram_login">
    <mxGraphModel grid="0" page="0" gridSize="10" guides="1" tooltips="1" connect="1" arrows="1" fold="1" pageScale="1" pageWidth="850" pageHeight="1100" math="0" shadow="0">
      <root>
        <mxCell id="0" />
        <mxCell id="1" parent="0" />
        <mxCell id="Z4NBXeImmAA-fZiFAv8d-13" style="edgeStyle=orthogonalEdgeStyle;rounded=0;orthogonalLoop=1;jettySize=auto;html=1;fontSize=12;startSize=8;endSize=8;" edge="1" parent="1" source="hXXzLcwIWEgWtw94QfrL-1">
          <mxGeometry relative="1" as="geometry">
            <mxPoint x="102" y="205" as="targetPoint" />
            <Array as="points">
              <mxPoint x="-68" y="205" />
            </Array>
          </mxGeometry>
        </mxCell>
        <mxCell id="hXXzLcwIWEgWtw94QfrL-1" value="user" style="rounded=0;whiteSpace=wrap;html=1;fontSize=16;fillColor=#fff2cc;strokeColor=#d6b656;" vertex="1" parent="1">
          <mxGeometry x="-179" y="-13" width="143" height="57" as="geometry" />
        </mxCell>
        <mxCell id="hXXzLcwIWEgWtw94QfrL-2" value="1.0" style="swimlane;fontStyle=0;childLayout=stackLayout;horizontal=1;startSize=30;horizontalStack=0;resizeParent=1;resizeParentMax=0;resizeLast=0;collapsible=1;marginBottom=0;whiteSpace=wrap;html=1;fontSize=16;fillColor=#d5e8d4;strokeColor=#82b366;" vertex="1" parent="1">
          <mxGeometry x="103" y="67" width="140" height="70" as="geometry" />
        </mxCell>
        <mxCell id="hXXzLcwIWEgWtw94QfrL-3" value="Input Phone Number" style="text;strokeColor=none;fillColor=none;align=left;verticalAlign=middle;spacingLeft=4;spacingRight=4;overflow=hidden;points=[[0,0.5],[1,0.5]];portConstraint=eastwest;rotatable=0;whiteSpace=wrap;html=1;fontSize=16;" vertex="1" parent="hXXzLcwIWEgWtw94QfrL-2">
          <mxGeometry y="30" width="140" height="40" as="geometry" />
        </mxCell>
        <mxCell id="hXXzLcwIWEgWtw94QfrL-6" value="2.0" style="swimlane;fontStyle=0;childLayout=stackLayout;horizontal=1;startSize=30;horizontalStack=0;resizeParent=1;resizeParentMax=0;resizeLast=0;collapsible=1;marginBottom=0;whiteSpace=wrap;html=1;fontSize=16;fillColor=#d5e8d4;strokeColor=#82b366;" vertex="1" parent="1">
          <mxGeometry x="103" y="195" width="140" height="70" as="geometry" />
        </mxCell>
        <mxCell id="hXXzLcwIWEgWtw94QfrL-7" value="Check Verifier Code" style="text;strokeColor=none;fillColor=none;align=left;verticalAlign=middle;spacingLeft=4;spacingRight=4;overflow=hidden;points=[[0,0.5],[1,0.5]];portConstraint=eastwest;rotatable=0;whiteSpace=wrap;html=1;fontSize=16;" vertex="1" parent="hXXzLcwIWEgWtw94QfrL-6">
          <mxGeometry y="30" width="140" height="40" as="geometry" />
        </mxCell>
        <mxCell id="hXXzLcwIWEgWtw94QfrL-8" style="edgeStyle=orthogonalEdgeStyle;rounded=0;orthogonalLoop=1;jettySize=auto;html=1;fontSize=12;startSize=8;endSize=8;entryX=0.414;entryY=0.017;entryDx=0;entryDy=0;entryPerimeter=0;exitX=1;exitY=0.5;exitDx=0;exitDy=0;" edge="1" parent="1" source="hXXzLcwIWEgWtw94QfrL-1" target="hXXzLcwIWEgWtw94QfrL-2">
          <mxGeometry relative="1" as="geometry">
            <mxPoint x="93" y="14" as="targetPoint" />
          </mxGeometry>
        </mxCell>
        <mxCell id="hXXzLcwIWEgWtw94QfrL-10" value="&lt;b&gt;Telegram Form Login&lt;/b&gt;" style="text;html=1;strokeColor=#6c8ebf;fillColor=#dae8fc;align=center;verticalAlign=middle;whiteSpace=wrap;rounded=0;fontSize=16;" vertex="1" parent="1">
          <mxGeometry x="-10" y="-167" width="235" height="30" as="geometry" />
        </mxCell>
        <mxCell id="Z4NBXeImmAA-fZiFAv8d-1" style="edgeStyle=orthogonalEdgeStyle;rounded=0;orthogonalLoop=1;jettySize=auto;html=1;entryX=0.875;entryY=0.973;entryDx=0;entryDy=0;entryPerimeter=0;fontSize=12;startSize=8;endSize=8;" edge="1" parent="1" source="hXXzLcwIWEgWtw94QfrL-2" target="hXXzLcwIWEgWtw94QfrL-1">
          <mxGeometry relative="1" as="geometry" />
        </mxCell>
        <mxCell id="Z4NBXeImmAA-fZiFAv8d-2" value="4.0" style="swimlane;fontStyle=0;childLayout=stackLayout;horizontal=1;startSize=30;horizontalStack=0;resizeParent=1;resizeParentMax=0;resizeLast=0;collapsible=1;marginBottom=0;whiteSpace=wrap;html=1;fontSize=16;fillColor=#d5e8d4;strokeColor=#82b366;" vertex="1" parent="1">
          <mxGeometry x="103" y="437" width="140" height="60" as="geometry" />
        </mxCell>
        <mxCell id="Z4NBXeImmAA-fZiFAv8d-3" value="Item 1" style="text;strokeColor=none;fillColor=none;align=left;verticalAlign=middle;spacingLeft=4;spacingRight=4;overflow=hidden;points=[[0,0.5],[1,0.5]];portConstraint=eastwest;rotatable=0;whiteSpace=wrap;html=1;fontSize=16;" vertex="1" parent="Z4NBXeImmAA-fZiFAv8d-2">
          <mxGeometry y="30" width="140" height="30" as="geometry" />
        </mxCell>
        <mxCell id="Z4NBXeImmAA-fZiFAv8d-7" style="edgeStyle=orthogonalEdgeStyle;rounded=0;orthogonalLoop=1;jettySize=auto;html=1;entryX=0.5;entryY=1;entryDx=0;entryDy=0;fontSize=12;startSize=8;endSize=8;exitX=0;exitY=0.5;exitDx=0;exitDy=0;" edge="1" parent="1" source="Z4NBXeImmAA-fZiFAv8d-5" target="hXXzLcwIWEgWtw94QfrL-1">
          <mxGeometry relative="1" as="geometry">
            <Array as="points">
              <mxPoint x="-107" y="361" />
            </Array>
          </mxGeometry>
        </mxCell>
        <mxCell id="Z4NBXeImmAA-fZiFAv8d-4" value="3.0" style="swimlane;fontStyle=0;childLayout=stackLayout;horizontal=1;startSize=30;horizontalStack=0;resizeParent=1;resizeParentMax=0;resizeLast=0;collapsible=1;marginBottom=0;whiteSpace=wrap;html=1;fontSize=16;fillColor=#d5e8d4;strokeColor=#82b366;" vertex="1" parent="1">
          <mxGeometry x="103" y="316" width="140" height="60" as="geometry" />
        </mxCell>
        <mxCell id="Z4NBXeImmAA-fZiFAv8d-5" value="Item 1" style="text;strokeColor=none;fillColor=none;align=left;verticalAlign=middle;spacingLeft=4;spacingRight=4;overflow=hidden;points=[[0,0.5],[1,0.5]];portConstraint=eastwest;rotatable=0;whiteSpace=wrap;html=1;fontSize=16;" vertex="1" parent="Z4NBXeImmAA-fZiFAv8d-4">
          <mxGeometry y="30" width="140" height="30" as="geometry" />
        </mxCell>
        <mxCell id="Z4NBXeImmAA-fZiFAv8d-6" style="edgeStyle=orthogonalEdgeStyle;rounded=0;orthogonalLoop=1;jettySize=auto;html=1;fontSize=12;startSize=8;endSize=8;" edge="1" parent="1">
          <mxGeometry relative="1" as="geometry">
            <mxPoint x="103" y="239.728547008547" as="sourcePoint" />
            <mxPoint x="-80" y="45" as="targetPoint" />
            <Array as="points">
              <mxPoint x="-80" y="239.32" />
              <mxPoint x="-80" y="51.32" />
              <mxPoint x="-80" y="51.32" />
            </Array>
          </mxGeometry>
        </mxCell>
        <mxCell id="Z4NBXeImmAA-fZiFAv8d-8" style="edgeStyle=orthogonalEdgeStyle;rounded=0;orthogonalLoop=1;jettySize=auto;html=1;entryX=0.25;entryY=1;entryDx=0;entryDy=0;fontSize=12;startSize=8;endSize=8;" edge="1" parent="1" source="Z4NBXeImmAA-fZiFAv8d-3" target="hXXzLcwIWEgWtw94QfrL-1">
          <mxGeometry relative="1" as="geometry" />
        </mxCell>
        <mxCell id="Z4NBXeImmAA-fZiFAv8d-9" value="" style="endArrow=classic;html=1;rounded=0;fontSize=12;startSize=8;endSize=8;curved=1;" edge="1" parent="1">
          <mxGeometry width="50" height="50" relative="1" as="geometry">
            <mxPoint x="175" y="135" as="sourcePoint" />
            <mxPoint x="175" y="196" as="targetPoint" />
          </mxGeometry>
        </mxCell>
        <mxCell id="Z4NBXeImmAA-fZiFAv8d-16" value="Correct" style="edgeLabel;html=1;align=center;verticalAlign=middle;resizable=0;points=[];fontSize=16;" connectable="0" vertex="1" parent="Z4NBXeImmAA-fZiFAv8d-9">
          <mxGeometry x="-0.4016" y="-1" relative="1" as="geometry">
            <mxPoint y="-1" as="offset" />
          </mxGeometry>
        </mxCell>
        <mxCell id="Z4NBXeImmAA-fZiFAv8d-11" value="" style="endArrow=classic;html=1;rounded=0;fontSize=12;startSize=8;endSize=8;curved=1;" edge="1" parent="1">
          <mxGeometry width="50" height="50" relative="1" as="geometry">
            <mxPoint x="175" y="376" as="sourcePoint" />
            <mxPoint x="175" y="437" as="targetPoint" />
          </mxGeometry>
        </mxCell>
        <mxCell id="Z4NBXeImmAA-fZiFAv8d-18" value="Correct" style="edgeLabel;html=1;align=center;verticalAlign=middle;resizable=0;points=[];fontSize=16;" connectable="0" vertex="1" parent="Z4NBXeImmAA-fZiFAv8d-11">
          <mxGeometry x="-0.2705" y="-1" relative="1" as="geometry">
            <mxPoint as="offset" />
          </mxGeometry>
        </mxCell>
        <mxCell id="Z4NBXeImmAA-fZiFAv8d-10" value="" style="endArrow=classic;html=1;rounded=0;fontSize=12;startSize=8;endSize=8;curved=1;exitX=0.521;exitY=1.056;exitDx=0;exitDy=0;exitPerimeter=0;" edge="1" parent="1" source="hXXzLcwIWEgWtw94QfrL-7">
          <mxGeometry width="50" height="50" relative="1" as="geometry">
            <mxPoint x="177" y="254" as="sourcePoint" />
            <mxPoint x="177" y="315" as="targetPoint" />
          </mxGeometry>
        </mxCell>
        <mxCell id="Z4NBXeImmAA-fZiFAv8d-17" value="Correct" style="edgeLabel;html=1;align=center;verticalAlign=middle;resizable=0;points=[];fontSize=16;" connectable="0" vertex="1" parent="Z4NBXeImmAA-fZiFAv8d-10">
          <mxGeometry x="-0.1639" y="1" relative="1" as="geometry">
            <mxPoint as="offset" />
          </mxGeometry>
        </mxCell>
        <mxCell id="Z4NBXeImmAA-fZiFAv8d-14" style="edgeStyle=orthogonalEdgeStyle;rounded=0;orthogonalLoop=1;jettySize=auto;html=1;fontSize=12;startSize=8;endSize=8;entryX=-0.026;entryY=0.263;entryDx=0;entryDy=0;entryPerimeter=0;" edge="1" parent="1">
          <mxGeometry relative="1" as="geometry">
            <mxPoint x="100.36000000000013" y="331.78" as="targetPoint" />
            <mxPoint x="-95" y="44" as="sourcePoint" />
            <Array as="points">
              <mxPoint x="-95" y="332" />
              <mxPoint x="100" y="332" />
            </Array>
          </mxGeometry>
        </mxCell>
        <mxCell id="Z4NBXeImmAA-fZiFAv8d-15" style="edgeStyle=orthogonalEdgeStyle;rounded=0;orthogonalLoop=1;jettySize=auto;html=1;fontSize=12;startSize=8;endSize=8;entryX=0;entryY=0.25;entryDx=0;entryDy=0;" edge="1" parent="1" target="Z4NBXeImmAA-fZiFAv8d-2">
          <mxGeometry relative="1" as="geometry">
            <mxPoint x="66" y="332" as="targetPoint" />
            <mxPoint x="-129" y="44" as="sourcePoint" />
            <Array as="points">
              <mxPoint x="-129" y="451" />
              <mxPoint x="103" y="451" />
            </Array>
          </mxGeometry>
        </mxCell>
      </root>
    </mxGraphModel>
  </diagram>
</mxfile>
